<svg xmlns="http://www.w3.org/2000/svg" xmlns:xlink="http://www.w3.org/1999/xlink" width="155" height="163" viewBox="0 0 155 163"><defs><clipPath id="a"><rect width="155" height="163" fill="none"/></clipPath></defs><g clip-path="url(#a)"><g transform="translate(-3977 -1621)"><circle cx="3.5" cy="3.5" r="3.5" transform="translate(3981 1625)" fill="#8643ff"/></g><g transform="translate(-3942 -1621)"><circle cx="3.5" cy="3.5" r="3.5" transform="translate(3981 1625)" fill="#8643ff"/></g><g transform="translate(-3907 -1621)"><circle cx="3.5" cy="3.5" r="3.5" transform="translate(3981 1625)" fill="#8643ff"/></g><g transform="translate(-3872 -1621)"><circle cx="3.5" cy="3.5" r="3.5" transform="translate(3981 1625)" fill="#8643ff"/></g><g transform="translate(-3837 -1621)"><circle cx="3.5" cy="3.5" r="3.5" transform="translate(3981 1625)" fill="#8643ff"/></g><g transform="translate(-3977 -1586)"><circle cx="3.5" cy="3.5" r="3.5" transform="translate(3981 1625)" fill="#8643ff"/></g><g transform="translate(-3942 -1586)"><circle cx="3.5" cy="3.5" r="3.5" transform="translate(3981 1625)" fill="#8643ff"/></g><g transform="translate(-3907 -1586)"><circle cx="3.5" cy="3.5" r="3.5" transform="translate(3981 1625)" fill="#8643ff"/></g><g transform="translate(-3872 -1586)"><circle cx="3.5" cy="3.5" r="3.5" transform="translate(3981 1625)" fill="#8643ff"/></g><g transform="translate(-3837 -1586)"><circle cx="3.5" cy="3.5" r="3.5" transform="translate(3981 1625)" fill="#8643ff"/></g><g transform="translate(-3977 -1551)"><circle cx="3.5" cy="3.5" r="3.5" transform="translate(3981 1625)" fill="#8643ff"/></g><g transform="translate(-3942 -1551)"><circle cx="3.5" cy="3.5" r="3.5" transform="translate(3981 1625)" fill="#8643ff"/></g><g transform="translate(-3907 -1551)"><circle cx="3.5" cy="3.5" r="3.5" transform="translate(3981 1625)" fill="#8643ff"/></g><g transform="translate(-3872 -1551)"><circle cx="3.5" cy="3.5" r="3.5" transform="translate(3981 1625)" fill="#8643ff"/></g><g transform="translate(-3837 -1551)"><circle cx="3.5" cy="3.5" r="3.5" transform="translate(3981 1625)" fill="#8643ff"/></g><g transform="translate(-3977 -1516)"><circle cx="3.5" cy="3.5" r="3.5" transform="translate(3981 1625)" fill="#8643ff"/></g><g transform="translate(-3942 -1516)"><circle cx="3.5" cy="3.5" r="3.5" transform="translate(3981 1625)" fill="#8643ff"/></g><g transform="translate(-3907 -1516)"><circle cx="3.5" cy="3.5" r="3.5" transform="translate(3981 1625)" fill="#8643ff"/></g><g transform="translate(-3872 -1516)"><circle cx="3.5" cy="3.5" r="3.5" transform="translate(3981 1625)" fill="#8643ff"/></g><g transform="translate(-3837 -1516)"><circle cx="3.5" cy="3.5" r="3.5" transform="translate(3981 1625)" fill="#8643ff"/></g><g transform="translate(-3977 -1481)"><circle cx="3.5" cy="3.5" r="3.5" transform="translate(3981 1625)" fill="#8643ff"/></g><g transform="translate(-3942 -1481)"><circle cx="3.5" cy="3.5" r="3.5" transform="translate(3981 1625)" fill="#8643ff"/></g><g transform="translate(-3907 -1481)"><circle cx="3.5" cy="3.5" r="3.5" transform="translate(3981 1625)" fill="#8643ff"/></g><g transform="translate(-3872 -1481)"><circle cx="3.5" cy="3.5" r="3.5" transform="translate(3981 1625)" fill="#8643ff"/></g><g transform="translate(-3837 -1481)"><circle cx="3.5" cy="3.5" r="3.5" transform="translate(3981 1625)" fill="#8643ff"/></g></g></svg>